<svg xmlns="http://www.w3.org/2000/svg" width="938" height="426" viewBox="0 0 938 426" version="1.1">
	<path d="M 603.614 79.500 C 599.521 96.890, 595.639 106.960, 580.510 139.435 C 568.735 164.709, 566.634 169.647, 563.881 178.500 C 559.428 192.822, 563.265 209.044, 573.641 219.758 L 578.234 224.500 580.006 216 C 585.714 188.616, 602.892 166.171, 627.750 153.618 C 630.638 152.159, 633 150.774, 633 150.540 C 633 150.305, 629.570 142.776, 625.379 133.807 C 612.599 106.463, 607.688 93.315, 604.721 78.500 C 604.402 76.908, 604.176 77.112, 603.614 79.500 M 244.795 106.438 C 211.298 112.348, 185.248 133.557, 174.228 163.894 C 171.085 172.545, 170.692 174.792, 170.275 186.500 C 169.615 205.014, 172.576 217.321, 181.145 231.678 C 185.122 238.340, 198.219 252.522, 204.976 257.482 C 212.578 263.063, 225.143 268.885, 235.732 271.734 C 244.618 274.125, 247.216 274.366, 264.500 274.409 C 285.291 274.460, 290.067 273.698, 304.946 267.961 C 330.162 258.236, 350.841 235.268, 357.578 209.500 C 360.341 198.933, 360.139 179.997, 357.151 169.500 C 348.360 138.611, 322.746 114.850, 290.233 107.424 C 280.825 105.276, 254.611 104.707, 244.795 106.438 M 418.500 106.433 C 404.713 109.154, 394.991 113.922, 386.395 122.177 C 368.473 139.386, 368.973 168.444, 387.504 186.614 C 395.045 194.008, 405.009 199.163, 429.920 208.561 C 438.401 211.760, 447.401 215.755, 449.920 217.439 C 455.555 221.205, 458.277 226.087, 457.642 231.288 C 456.481 240.805, 449.863 244.392, 433.500 244.374 C 426.573 244.366, 419.958 243.735, 415.637 242.669 C 407.783 240.732, 393.418 234.063, 384.216 228.084 C 380.760 225.838, 377.723 224, 377.466 224 C 377.210 224, 377 232.037, 377 241.861 L 377 259.722 384.941 263.352 C 402.593 271.421, 418.493 274.992, 436.792 274.997 C 468.083 275.006, 490.799 262.132, 498.079 240.265 C 500.873 231.873, 501.082 219.238, 498.568 210.764 C 495.046 198.893, 484.741 187.448, 471.555 180.762 C 468.225 179.073, 457.254 174.409, 447.175 170.397 C 437.097 166.385, 426.831 161.919, 424.363 160.472 C 413.107 153.876, 413.321 143.501, 424.821 138.213 C 432.868 134.513, 446.385 134.555, 460.296 138.323 C 467.878 140.377, 484.211 146.260, 492.250 149.833 C 492.663 150.017, 493 142.941, 493 134.109 L 493 118.051 490.250 116.637 C 485.946 114.424, 470.109 109.323, 461.925 107.515 C 451.694 105.254, 427.522 104.652, 418.500 106.433 M 16 189.994 L 16 273.120 65.250 272.808 L 114.500 272.496 122.500 269.680 C 126.900 268.132, 132.645 265.494, 135.266 263.818 C 157.236 249.773, 162.447 216.651, 145.840 196.603 C 141.871 191.812, 132.560 185.679, 125.892 183.464 L 120.909 181.809 125.205 179.045 C 131.319 175.111, 136.784 169.295, 139.813 163.500 C 142.085 159.153, 142.431 157.259, 142.463 149 C 142.495 140.764, 142.151 138.768, 139.875 134 C 134.576 122.899, 125.343 115.216, 111.391 110.300 L 103.500 107.519 59.750 107.193 L 16 106.868 16 189.994 M 574.017 109.063 C 543.252 118.130, 519.168 143.383, 512.439 173.630 C 510.125 184.033, 510.906 203.516, 514.037 213.500 C 518.126 226.534, 523.541 235.480, 533.939 246.376 C 546.219 259.244, 559.449 267.084, 576.732 271.734 C 585.618 274.125, 588.216 274.366, 605.500 274.409 C 626.291 274.460, 631.067 273.698, 645.946 267.961 C 667.128 259.792, 687.078 240.261, 695.352 219.593 C 698.254 212.344, 701 198.414, 701 190.941 C 701 162.001, 684.571 133.832, 658.507 118.083 C 648.247 111.884, 627 104.970, 627 107.831 C 627 108.428, 630.876 117.148, 635.612 127.208 C 655.097 168.593, 658.010 176.720, 657.985 189.644 C 657.958 204.329, 653.716 216.111, 645.166 225.256 C 635.097 236.023, 624.224 240.909, 608.500 241.731 C 591.921 242.597, 579.852 238.471, 568.843 228.172 C 558.090 218.113, 552.732 205.476, 552.661 190 C 552.601 177.262, 555.750 168.398, 574.026 129.846 C 579.512 118.275, 584 108.401, 584 107.904 C 584 106.594, 581.355 106.901, 574.017 109.063 M 722 190 L 722 273 742.491 273 L 762.982 273 763.241 220.208 L 763.500 167.415 808.962 220.208 L 854.424 273 871.712 273 L 889 273 889 190 L 889 107 868.509 107 L 848.018 107 847.759 157.553 L 847.500 208.106 842.500 202.188 C 839.750 198.934, 819.955 176.185, 798.511 151.635 L 759.523 107 740.761 107 L 722 107 722 190 M 58 154.860 L 58 173 70.750 172.994 C 85.054 172.988, 89.554 172.088, 94.005 168.342 C 98.343 164.692, 100 160.921, 100 154.698 C 100 147.752, 97.177 143.333, 90.681 140.111 C 86.510 138.042, 83.997 137.655, 71.932 137.221 L 58 136.720 58 154.860 M 256.772 140.068 C 244.402 141.470, 235.416 145.554, 226.962 153.618 C 216.829 163.283, 212.599 174.233, 212.714 190.500 C 212.827 206.390, 216.685 216.170, 226.921 226.512 C 245.906 245.693, 283.610 245.550, 302.935 226.225 C 312.438 216.722, 316.955 205.140, 316.985 190.197 C 317.025 170.525, 307.969 154.264, 292.217 145.725 C 283.284 140.882, 269.293 138.649, 256.772 140.068 M 631.409 163.234 C 628.806 166.681, 626.332 169.895, 625.911 170.377 C 625.491 170.859, 623.093 169.572, 620.584 167.516 C 617.887 165.305, 615.405 164.014, 614.511 164.357 C 612.255 165.223, 612.664 166.255, 616.257 168.768 C 623.956 174.151, 623.884 172.957, 617.052 181.931 C 613.674 186.369, 610.461 190, 609.912 190 C 609.363 190, 606.438 188.130, 603.412 185.846 C 599.252 182.705, 597.627 181.973, 596.754 182.846 C 595.448 184.152, 595.364 184.054, 602.698 189.743 L 607.895 193.775 601.843 201.888 C 598.515 206.349, 595.362 210, 594.837 210 C 594.312 210, 592.083 208.554, 589.883 206.786 C 586.561 204.116, 585.724 203.819, 584.947 205.036 C 584 206.518, 584.741 207.404, 590.541 211.723 L 592.928 213.500 587.989 220 C 582.553 227.155, 582.382 227.549, 584.374 228.313 C 585.231 228.642, 587.574 226.424, 590.598 222.420 C 593.266 218.889, 595.606 216, 595.800 216 C 596.065 216, 604.553 222.264, 608.929 225.689 C 609.165 225.874, 608.377 227.351, 607.179 228.972 C 604.500 232.596, 604.481 233, 606.992 233 C 608.087 233, 609.545 232.100, 610.232 231 C 611.741 228.584, 612.786 228.496, 615.100 230.590 C 616.228 231.611, 617.632 231.934, 619.024 231.493 C 621.108 230.831, 621.064 230.699, 617.862 228.026 L 614.533 225.247 620.382 217.611 C 623.599 213.412, 626.614 209.738, 627.084 209.448 C 627.553 209.158, 630.508 210.939, 633.651 213.406 C 636.795 215.873, 639.734 217.665, 640.183 217.387 C 642.079 216.215, 640.672 214.115, 635.522 210.425 C 632.508 208.266, 630.033 206.140, 630.022 205.699 C 630.010 205.259, 632.775 201.319, 636.166 196.943 C 642.165 189.205, 642.396 189.029, 644.631 190.494 C 647.611 192.447, 648 192.395, 648 190.050 C 648 188.977, 647.274 187.693, 646.386 187.196 C 645.071 186.460, 644.986 185.894, 645.929 184.133 C 646.670 182.748, 646.754 181.383, 646.163 180.327 C 645.343 178.862, 645.114 178.918, 644.086 180.840 C 643.450 182.028, 642.461 183, 641.889 183 C 640.558 183, 629 174.136, 629 173.116 C 629 172.694, 631.013 169.683, 633.473 166.424 C 635.934 163.166, 637.959 159.964, 637.973 159.309 C 638.044 156.144, 635.709 157.540, 631.409 163.234 M 619.184 184.998 L 613.059 192.997 619.279 197.964 C 622.701 200.697, 625.950 202.933, 626.500 202.933 C 627.441 202.934, 639 187.910, 639 186.686 C 639 185.859, 627.321 177, 626.231 177 C 625.724 177, 622.553 180.599, 619.184 184.998 M 606 202.134 C 603.525 205.476, 600.708 209.243, 599.739 210.505 C 597.988 212.789, 598.012 212.827, 604.468 217.900 C 608.037 220.705, 611.172 223, 611.434 223 C 611.982 223, 624 207.359, 624 206.645 C 624 206.128, 611.440 195.982, 610.858 196.029 C 610.661 196.045, 608.475 198.792, 606 202.134 M 58 222.878 L 58 243 71.250 242.980 C 95.913 242.943, 105.646 240.177, 109.750 232.038 C 113.683 224.239, 112.336 215.401, 106.359 209.789 C 101.096 204.847, 96.188 203.781, 76.250 203.245 L 58 202.756 58 222.878 M 16.336 284.566 C 16.005 285.429, 16.155 286.555, 16.668 287.068 C 17.245 287.645, 185.028 287.906, 455.051 287.751 C 891.750 287.500, 892.500 287.497, 892.500 285.500 C 892.500 283.503, 891.750 283.500, 454.719 283.249 C 57.876 283.021, 16.882 283.144, 16.336 284.566 M 21.955 307.698 C 21.931 308.139, 25.193 319.631, 29.205 333.235 L 36.500 357.970 42.042 357.985 L 47.583 358 51.912 343.250 C 54.293 335.137, 56.559 327.908, 56.947 327.185 C 57.358 326.418, 58.800 329.747, 60.410 335.185 C 61.927 340.308, 64.081 347.558, 65.196 351.297 L 67.223 358.093 72.743 357.797 L 78.264 357.500 85.619 333 C 89.665 319.525, 92.981 308.139, 92.988 307.698 C 92.994 307.256, 90.649 307.031, 87.776 307.198 L 82.552 307.500 77.771 323.422 C 75.142 332.178, 72.880 339.452, 72.745 339.585 C 72.610 339.718, 70.283 332.441, 67.574 323.413 L 62.648 307 57.356 307 L 52.064 307 49.437 315.750 C 47.993 320.563, 45.841 327.758, 44.655 331.741 C 43.470 335.723, 42.275 338.981, 42 338.980 C 41.725 338.980, 39.435 331.897, 36.911 323.240 L 32.322 307.500 27.161 307.198 C 24.322 307.031, 21.980 307.256, 21.955 307.698 M 128 332.500 L 128 358 133 358 L 138 358 138 348 L 138 338 153.500 338 L 169 338 169 348 L 169 358 174 358 L 179 358 179 332.500 L 179 307 174.035 307 L 169.070 307 168.785 317.250 L 168.500 327.500 153.500 327.500 L 138.500 327.500 138.215 317.250 L 137.930 307 132.965 307 L 128 307 128 332.500 M 224.667 307.667 C 224.300 308.033, 224 319.508, 224 333.167 L 224 358 229.500 358 L 235 358 235 332.500 L 235 307 230.167 307 C 227.508 307, 225.033 307.300, 224.667 307.667 M 280 312 L 280 317 290 317 L 300 317 300 337.500 L 300 358 305.500 358 L 311 358 311 337.500 L 311 317 321 317 L 331 317 331 312 L 331 307 305.500 307 L 280 307 280 312 M 356 312 L 356 317 381.500 317 L 407 317 407 312 L 407 307 381.500 307 L 356 307 356 312 M 471.414 308.750 C 473.102 314.130, 486 357.387, 486 357.667 C 486 357.850, 488.455 358, 491.456 358 L 496.913 358 499.331 350.250 C 500.661 345.988, 502.771 339.012, 504.020 334.750 C 505.269 330.488, 506.581 327, 506.934 327 C 507.288 327, 509.605 333.863, 512.084 342.250 L 516.590 357.500 522.123 357.795 L 527.656 358.090 534.783 334.244 C 538.703 321.128, 542.204 309.633, 542.562 308.699 C 543.127 307.226, 542.476 307, 537.674 307 C 533.256 307, 532.034 307.354, 531.635 308.750 C 526.718 325.968, 522.563 338.901, 522.094 338.448 C 521.767 338.133, 519.465 331.041, 516.979 322.688 L 512.457 307.500 507 307.500 L 501.544 307.500 496.950 322.500 C 494.424 330.750, 492.159 338.076, 491.918 338.780 C 491.677 339.484, 489.277 332.622, 486.584 323.530 L 481.689 307 476.277 307 C 471.580 307, 470.938 307.231, 471.414 308.750 M 589.655 310.201 C 588.878 312.015, 584.100 322.950, 579.037 334.500 C 573.975 346.050, 569.588 356.087, 569.289 356.804 C 568.870 357.806, 570.074 358.037, 574.502 357.804 L 580.259 357.500 587.980 339.685 C 592.226 329.887, 596.060 321.870, 596.500 321.870 C 596.940 321.870, 600.774 329.887, 605.020 339.685 L 612.741 357.500 618.358 357.800 C 623.414 358.069, 623.907 357.919, 623.294 356.300 C 622.919 355.310, 618.032 343.925, 612.435 331 L 602.257 307.500 596.662 307.201 C 591.180 306.908, 591.039 306.968, 589.655 310.201 M 661 312 L 661 317 671 317 L 681 317 681 337.500 L 681 358 685.979 358 L 690.959 358 691.229 337.750 L 691.500 317.500 701.750 317.215 L 712 316.930 712 311.965 L 712 307 686.500 307 L 661 307 661 312 M 750 312 L 750 317 775.500 317 L 801 317 801 312 L 801 307 775.500 307 L 750 307 750 312 M 838 311.928 L 838 317 854.250 317.006 C 871.623 317.012, 877.535 317.960, 878.465 320.890 C 879.222 323.274, 878.267 325.654, 876.173 326.606 C 875.253 327.024, 866.288 327.552, 856.250 327.779 L 838 328.191 838 333.095 L 838 338 845.575 338 L 853.150 338 865.003 348.043 L 876.855 358.087 884.332 357.793 L 891.809 357.500 880.732 348.037 L 869.656 338.574 875.806 337.461 C 882.570 336.238, 885.572 334.163, 887.638 329.282 C 890.571 322.352, 888.416 313.783, 882.679 309.571 C 880.077 307.660, 878.240 307.475, 858.929 307.178 L 838 306.855 838 311.928 M 356 333 L 356 338 381.500 338 L 407 338 407 333 L 407 328 381.500 328 L 356 328 356 333 M 750 333 L 750 338 775.500 338 L 801 338 801 333 L 801 328 775.500 328 L 750 328 750 333 M 356 353 L 356 358 381.500 358 L 407 358 407 353 L 407 348 381.500 348 L 356 348 356 353 M 750 353 L 750 358 775.500 358 L 801 358 801 353 L 801 348 775.500 348 L 750 348 750 353 M 16 378 C 16 379.997, 16.667 380, 454.500 380 C 892.333 380, 893 379.997, 893 378 C 893 376.003, 892.333 376, 454.500 376 C 16.667 376, 16 376.003, 16 378" stroke="none" fill="#1A4480" fill-rule="evenodd"/>
</svg>