<svg xmlns="http://www.w3.org/2000/svg" viewBox="0 0 560 586" width="100%" height="100%">
<path fill="#FFFFFF" fill-rule="evenodd" d="M358 247 L357 248 L357 249 L352 254 L352 255 L349 258 L349 259 L346 262 L346 263 L343 266 L343 267 L341 269 L341 270 L337 274 L337 275 L336 276 L335 276 L335 278 L334 279 L333 279 L333 280 L330 283 L330 284 L329 285 L326 285 L323 282 L322 282 L319 279 L318 279 L313 274 L312 274 L309 271 L308 271 L305 268 L304 268 L303 267 L300 267 L299 268 L298 268 L297 269 L297 270 L296 271 L295 271 L293 273 L294 274 L294 276 L295 277 L296 277 L300 281 L301 281 L303 283 L304 283 L307 286 L308 286 L309 287 L309 288 L310 288 L313 291 L314 291 L316 293 L317 293 L319 295 L319 298 L316 301 L316 302 L314 304 L314 305 L311 308 L311 309 L308 312 L308 313 L305 316 L305 317 L304 318 L303 318 L303 319 L300 322 L300 323 L297 326 L297 327 L294 330 L294 331 L292 333 L292 334 L289 337 L289 338 L288 339 L286 339 L283 336 L282 336 L280 334 L279 334 L278 333 L277 333 L276 332 L276 331 L275 331 L272 328 L271 328 L268 325 L267 325 L265 323 L264 323 L262 321 L262 320 L261 320 L258 317 L257 317 L255 315 L252 315 L249 318 L249 319 L247 321 L247 325 L248 326 L249 326 L252 329 L253 329 L254 330 L254 331 L255 331 L258 334 L259 334 L262 337 L263 337 L266 340 L267 340 L270 343 L271 343 L273 345 L274 345 L278 349 L278 352 L275 355 L275 356 L273 358 L273 359 L268 364 L268 365 L265 368 L265 369 L262 372 L262 373 L259 376 L259 377 L256 380 L256 381 L254 383 L254 384 L253 385 L252 385 L251 386 L251 387 L248 390 L248 391 L246 393 L245 393 L242 390 L241 390 L236 385 L234 385 L233 384 L233 383 L232 382 L231 382 L229 380 L228 380 L225 377 L224 377 L221 374 L220 374 L219 375 L219 377 L218 378 L218 379 L216 381 L216 386 L219 389 L220 389 L222 391 L223 391 L228 396 L229 396 L230 397 L231 397 L232 398 L232 399 L233 399 L238 404 L235 407 L235 408 L232 411 L232 412 L229 415 L229 416 L227 418 L227 419 L222 424 L222 425 L221 426 L221 427 L220 428 L219 428 L219 429 L216 432 L216 433 L212 437 L212 438 L211 439 L211 441 L212 442 L213 442 L214 443 L215 443 L217 445 L222 445 L222 444 L223 443 L224 443 L225 442 L225 441 L228 438 L228 437 L231 434 L231 433 L233 431 L233 430 L234 429 L235 429 L235 428 L238 425 L238 424 L241 421 L241 420 L244 417 L244 416 L248 412 L250 412 L253 415 L254 415 L257 418 L258 418 L262 422 L263 422 L265 424 L266 424 L267 425 L267 426 L268 426 L270 428 L271 428 L275 432 L277 432 L278 433 L278 434 L279 434 L281 436 L281 437 L282 438 L282 439 L281 440 L281 441 L278 444 L278 445 L275 448 L275 449 L274 450 L273 450 L273 451 L270 454 L270 457 L272 459 L281 459 L282 458 L283 458 L285 456 L285 455 L287 453 L287 452 L293 446 L294 446 L296 448 L297 448 L300 451 L301 451 L304 454 L306 454 L307 455 L308 454 L311 454 L312 453 L314 453 L315 452 L316 452 L317 451 L317 450 L318 449 L316 447 L315 447 L314 446 L314 445 L313 445 L310 442 L309 442 L306 439 L305 439 L301 435 L303 433 L303 432 L304 431 L304 430 L305 429 L306 429 L306 428 L309 425 L309 424 L312 421 L312 420 L315 417 L315 416 L319 412 L319 411 L320 410 L320 409 L321 408 L322 408 L322 407 L325 404 L325 403 L328 400 L328 399 L331 396 L331 395 L334 392 L335 393 L336 393 L339 396 L340 396 L341 397 L342 397 L343 398 L343 399 L344 399 L347 402 L348 402 L353 407 L355 407 L360 412 L361 412 L364 415 L368 415 L371 412 L371 411 L373 409 L373 406 L371 404 L370 404 L367 401 L366 401 L365 400 L365 399 L364 399 L361 396 L360 396 L357 393 L356 393 L353 390 L352 390 L349 387 L348 387 L347 386 L347 385 L345 385 L344 384 L344 383 L343 383 L342 382 L342 381 L344 379 L344 378 L347 375 L347 374 L352 369 L352 368 L355 365 L355 363 L356 362 L357 362 L357 361 L360 358 L360 357 L363 354 L363 353 L366 350 L366 349 L367 348 L368 348 L368 347 L371 344 L371 343 L374 340 L374 339 L375 338 L376 339 L377 339 L380 342 L381 342 L384 345 L385 345 L388 348 L389 348 L390 347 L390 346 L391 345 L391 337 L390 336 L390 334 L387 331 L386 331 L383 328 L383 327 L387 323 L387 322 L388 321 L388 317 L387 316 L387 312 L386 311 L386 310 L385 309 L384 309 L383 308 L382 309 L381 309 L381 310 L379 312 L379 313 L375 317 L375 318 L374 319 L373 319 L372 320 L369 317 L368 317 L366 315 L365 315 L362 312 L361 312 L356 307 L355 307 L354 306 L353 306 L352 305 L352 304 L351 304 L348 301 L347 301 L344 298 L343 298 L341 296 L340 296 L339 295 L339 292 L341 290 L341 289 L347 283 L347 281 L348 280 L349 280 L349 279 L352 276 L352 275 L355 272 L355 271 L358 268 L358 267 L363 262 L363 260 L364 259 L364 258 L365 257 L364 256 L364 255 L363 254 L363 251 L359 247 Z M289 358 L290 358 L291 359 L292 359 L295 362 L296 362 L297 363 L297 364 L299 364 L300 365 L300 366 L301 367 L302 367 L305 370 L306 370 L308 372 L309 372 L312 375 L313 375 L314 376 L314 377 L315 377 L318 380 L319 380 L320 381 L321 381 L322 382 L322 383 L323 383 L324 384 L322 386 L322 387 L321 388 L321 389 L320 390 L319 390 L319 391 L316 394 L316 395 L313 398 L313 399 L310 402 L310 403 L306 407 L306 408 L302 412 L302 413 L300 415 L300 416 L297 419 L297 420 L294 423 L294 424 L292 426 L292 427 L291 428 L288 425 L287 425 L284 422 L283 422 L281 420 L280 420 L279 419 L279 418 L278 418 L275 415 L274 415 L271 412 L269 412 L268 411 L268 410 L267 409 L266 409 L263 406 L262 406 L260 404 L259 404 L258 403 L258 402 L257 401 L257 399 L260 396 L260 395 L265 390 L265 389 L268 386 L268 385 L271 382 L271 381 L274 378 L274 377 L276 375 L276 374 L281 369 L281 368 L284 365 L284 364 L287 361 L287 360 Z M330 305 L331 304 L334 307 L335 307 L338 310 L339 310 L342 313 L343 313 L346 316 L347 316 L348 317 L348 318 L349 318 L351 320 L352 320 L355 323 L356 323 L359 326 L360 326 L363 329 L364 329 L365 330 L365 331 L362 334 L362 335 L359 338 L359 339 L358 340 L357 340 L357 341 L356 342 L356 343 L355 344 L354 344 L354 345 L352 347 L352 348 L349 351 L349 352 L346 355 L346 356 L343 359 L343 360 L342 361 L341 361 L341 362 L340 363 L340 364 L335 369 L335 370 L331 374 L326 369 L325 369 L324 368 L323 368 L322 367 L322 366 L321 366 L319 364 L318 364 L315 361 L314 361 L311 358 L310 358 L306 354 L305 354 L301 350 L300 350 L298 348 L298 346 L301 343 L301 342 L303 340 L303 339 L306 336 L306 335 L309 332 L309 331 L311 329 L311 328 L313 326 L314 326 L314 325 L317 322 L317 321 L320 318 L320 317 L322 315 L322 314 L325 311 L325 310 L328 307 L328 306 L329 305 Z M216 112 L215 113 L213 113 L212 114 L203 114 L201 116 L200 116 L199 117 L192 117 L190 119 L188 119 L187 120 L183 120 L182 121 L181 121 L180 122 L176 122 L175 123 L174 123 L173 124 L172 124 L171 125 L168 125 L167 126 L166 126 L165 127 L164 127 L163 128 L161 128 L160 129 L159 129 L158 130 L156 130 L153 133 L150 133 L148 135 L147 135 L146 136 L144 136 L142 138 L141 138 L140 139 L139 139 L137 141 L135 141 L134 142 L133 142 L131 144 L129 144 L129 145 L128 146 L126 146 L123 149 L122 149 L119 152 L118 152 L115 155 L114 155 L112 157 L111 157 L109 159 L108 159 L104 163 L103 163 L95 171 L94 171 L75 190 L75 191 L74 192 L73 192 L73 193 L67 199 L67 200 L64 203 L64 204 L61 207 L61 208 L60 209 L59 209 L59 210 L57 212 L57 213 L56 214 L56 215 L54 217 L54 218 L51 221 L51 222 L50 223 L50 224 L48 226 L48 227 L45 230 L45 232 L43 234 L43 235 L42 236 L42 237 L40 239 L40 241 L39 242 L39 243 L37 245 L37 248 L35 250 L35 251 L34 252 L34 254 L33 255 L33 256 L32 257 L32 260 L29 263 L29 268 L27 270 L27 271 L26 272 L26 277 L24 279 L24 282 L23 283 L23 286 L22 287 L22 289 L21 290 L21 297 L20 298 L20 302 L19 303 L19 305 L18 306 L18 321 L17 322 L17 358 L18 359 L18 373 L19 374 L19 377 L20 378 L20 382 L21 383 L21 390 L22 391 L22 392 L23 393 L23 397 L24 398 L24 401 L26 403 L26 408 L27 409 L27 410 L29 412 L29 417 L32 420 L32 423 L33 424 L33 425 L34 426 L34 427 L35 428 L35 430 L37 432 L37 435 L39 437 L39 438 L40 439 L40 441 L42 443 L42 444 L43 445 L43 446 L45 448 L45 449 L46 450 L46 451 L47 451 L48 452 L48 454 L49 455 L49 456 L51 458 L51 459 L52 459 L53 460 L53 462 L56 465 L56 466 L58 468 L58 469 L61 472 L61 473 L65 477 L65 478 L66 478 L67 479 L67 480 L69 482 L69 483 L75 489 L75 490 L79 494 L80 494 L81 495 L81 496 L84 499 L85 499 L86 500 L86 501 L87 502 L88 502 L89 503 L89 504 L90 505 L91 505 L92 506 L92 507 L93 507 L97 511 L98 511 L99 512 L99 513 L100 513 L103 516 L104 516 L105 517 L105 518 L106 518 L109 521 L110 521 L113 524 L114 524 L116 526 L117 526 L120 529 L122 529 L125 532 L126 532 L128 534 L129 534 L130 535 L131 535 L133 537 L135 537 L136 538 L137 538 L138 539 L138 540 L140 540 L142 542 L143 542 L144 543 L145 543 L146 544 L147 544 L148 545 L149 545 L150 546 L152 546 L154 548 L156 548 L157 549 L158 549 L159 550 L160 550 L161 551 L164 551 L165 552 L166 552 L168 554 L172 554 L174 556 L176 556 L177 557 L180 557 L181 558 L182 558 L183 559 L186 559 L187 560 L188 560 L189 561 L191 561 L192 562 L198 562 L200 564 L205 564 L206 565 L211 565 L212 566 L214 566 L215 567 L223 567 L224 568 L228 568 L229 569 L231 569 L232 570 L256 570 L257 571 L263 571 L264 572 L288 572 L289 571 L294 571 L295 570 L318 570 L319 569 L322 569 L323 568 L327 568 L328 567 L336 567 L337 566 L338 566 L339 565 L344 565 L345 564 L350 564 L351 563 L352 563 L353 562 L358 562 L359 561 L361 561 L362 560 L363 560 L364 559 L368 559 L369 558 L370 558 L371 557 L374 557 L375 556 L376 556 L378 554 L382 554 L383 553 L384 553 L386 551 L389 551 L390 550 L391 550 L392 549 L393 549 L394 548 L396 548 L398 546 L400 546 L401 545 L402 545 L403 544 L404 544 L405 543 L406 543 L407 542 L408 542 L410 540 L412 540 L412 539 L413 538 L415 538 L416 537 L417 537 L419 535 L420 535 L421 534 L422 534 L424 532 L425 532 L427 530 L428 530 L429 529 L430 529 L433 526 L434 526 L436 524 L437 524 L440 521 L441 521 L441 520 L442 519 L443 519 L446 516 L447 516 L450 513 L451 513 L459 505 L460 505 L460 504 L462 502 L463 502 L463 501 L465 499 L466 499 L466 498 L467 497 L468 497 L468 496 L470 494 L471 494 L474 491 L474 490 L475 489 L476 489 L476 488 L482 482 L482 481 L485 478 L485 477 L490 472 L490 471 L493 468 L493 467 L496 464 L496 463 L498 461 L498 460 L499 459 L499 458 L501 456 L501 455 L504 452 L504 450 L506 448 L506 447 L507 446 L507 445 L509 443 L509 441 L512 438 L512 435 L514 433 L514 432 L515 431 L515 429 L517 427 L517 424 L518 423 L518 422 L520 420 L520 416 L521 415 L521 414 L523 412 L523 409 L524 408 L524 407 L525 406 L525 403 L526 402 L526 399 L528 397 L528 390 L529 389 L529 387 L530 386 L530 384 L531 383 L531 374 L532 373 L532 371 L533 370 L533 360 L534 359 L534 320 L533 319 L533 310 L532 309 L532 306 L531 305 L531 297 L530 296 L530 294 L529 293 L529 290 L528 289 L528 283 L527 282 L527 281 L526 280 L526 277 L525 276 L525 273 L524 272 L524 271 L523 270 L523 267 L520 264 L520 259 L517 256 L517 253 L515 251 L515 249 L514 248 L514 247 L513 246 L513 245 L512 244 L512 242 L510 240 L510 239 L509 238 L509 236 L507 234 L507 233 L506 232 L506 231 L504 229 L504 228 L502 226 L502 225 L501 224 L501 223 L498 220 L498 219 L496 217 L496 216 L495 215 L495 214 L493 212 L493 211 L490 208 L490 207 L485 202 L485 201 L482 198 L482 197 L476 191 L476 190 L475 190 L474 189 L474 188 L473 187 L472 187 L471 186 L471 185 L470 185 L469 184 L469 183 L460 174 L459 174 L458 173 L458 172 L457 171 L456 171 L450 165 L449 165 L444 160 L443 160 L440 157 L439 157 L437 155 L436 155 L433 152 L432 152 L429 149 L427 149 L424 146 L423 146 L421 144 L420 144 L419 143 L418 143 L416 141 L414 141 L412 139 L411 139 L410 138 L409 138 L407 136 L405 136 L404 135 L403 135 L401 133 L399 133 L398 132 L397 132 L395 130 L392 130 L390 128 L388 128 L387 127 L386 127 L385 126 L384 126 L383 125 L379 125 L377 123 L375 123 L374 122 L370 122 L368 120 L365 120 L364 119 L361 119 L359 117 L353 117 L352 116 L350 116 L348 114 L340 114 L339 113 L337 113 L336 112 L330 112 L330 117 L331 118 L331 119 L332 120 L332 121 L333 122 L333 124 L334 125 L334 126 L335 127 L335 129 L337 131 L337 132 L338 133 L338 135 L340 137 L340 139 L341 140 L341 142 L343 144 L343 146 L344 147 L344 148 L346 150 L346 152 L347 153 L347 154 L348 155 L348 156 L349 157 L349 159 L351 161 L351 163 L352 164 L352 165 L353 166 L353 167 L354 168 L354 169 L355 170 L355 171 L357 173 L357 176 L359 178 L359 180 L360 181 L360 182 L362 184 L362 186 L363 187 L363 188 L365 190 L365 193 L367 195 L367 196 L368 197 L368 199 L369 200 L369 201 L370 202 L370 203 L371 204 L371 205 L372 206 L372 207 L373 208 L373 210 L375 212 L375 213 L376 214 L376 216 L378 218 L378 219 L379 220 L379 222 L380 223 L380 224 L381 225 L381 227 L383 229 L383 230 L384 231 L384 234 L386 236 L386 237 L387 238 L387 240 L389 242 L389 245 L392 248 L392 252 L394 254 L394 255 L395 256 L395 259 L397 261 L397 263 L398 264 L398 265 L399 266 L399 267 L400 268 L400 271 L401 272 L401 273 L402 274 L402 275 L403 276 L403 279 L405 281 L405 283 L406 284 L406 285 L407 286 L407 287 L408 288 L408 292 L409 293 L409 294 L410 295 L410 296 L411 297 L411 303 L412 304 L412 306 L413 307 L413 309 L414 310 L414 316 L415 317 L415 320 L416 321 L416 329 L417 330 L417 343 L416 344 L416 356 L415 357 L415 361 L414 362 L414 369 L413 370 L413 372 L412 373 L412 375 L411 376 L411 382 L410 383 L410 384 L409 385 L409 386 L408 387 L408 391 L407 392 L407 393 L406 394 L406 396 L405 397 L405 398 L404 399 L404 400 L403 401 L403 403 L401 405 L401 406 L400 407 L400 409 L398 411 L398 412 L397 413 L397 414 L395 416 L395 417 L392 420 L392 422 L391 423 L390 423 L389 424 L389 425 L386 428 L386 429 L384 431 L384 432 L383 433 L382 433 L381 434 L381 435 L380 436 L379 436 L378 437 L378 438 L377 439 L376 439 L376 440 L374 442 L373 442 L373 443 L371 445 L370 445 L366 449 L365 449 L361 453 L360 453 L358 455 L357 455 L356 456 L355 456 L353 458 L352 458 L350 460 L349 460 L348 461 L347 461 L345 463 L343 463 L342 464 L341 464 L339 466 L337 466 L336 467 L335 467 L334 468 L333 468 L332 469 L329 469 L328 470 L327 470 L326 471 L324 471 L323 472 L319 472 L317 474 L312 474 L311 475 L308 475 L307 476 L304 476 L303 477 L294 477 L293 478 L289 478 L288 479 L261 479 L260 478 L256 478 L255 477 L245 477 L244 476 L241 476 L240 475 L237 475 L236 474 L232 474 L231 473 L230 473 L229 472 L225 472 L224 471 L222 471 L220 469 L217 469 L216 468 L215 468 L214 467 L213 467 L212 466 L210 466 L208 464 L207 464 L206 463 L204 463 L202 461 L200 461 L197 458 L196 458 L195 457 L194 457 L192 455 L191 455 L189 453 L188 453 L185 450 L184 450 L181 447 L180 447 L179 446 L179 445 L178 445 L165 432 L165 431 L164 431 L163 430 L163 429 L162 428 L162 427 L159 424 L159 423 L157 421 L157 420 L156 420 L155 419 L155 417 L152 414 L152 413 L151 412 L151 411 L149 409 L149 407 L147 405 L147 404 L146 403 L146 400 L144 398 L144 396 L143 395 L143 393 L142 392 L142 391 L141 390 L141 387 L139 385 L139 384 L138 383 L138 377 L136 375 L136 371 L135 370 L135 363 L134 362 L134 361 L133 360 L133 346 L132 345 L132 328 L133 327 L133 318 L134 317 L134 316 L135 315 L135 309 L136 308 L136 305 L138 303 L138 297 L139 296 L139 295 L141 293 L141 290 L142 289 L142 287 L143 286 L143 284 L144 283 L144 281 L145 280 L145 279 L146 278 L146 275 L147 274 L147 273 L148 272 L148 271 L149 270 L149 267 L151 265 L151 263 L152 262 L152 260 L154 258 L154 255 L155 254 L155 253 L157 251 L157 249 L158 248 L158 247 L159 246 L159 245 L160 244 L160 242 L162 240 L162 238 L163 237 L163 235 L165 233 L165 230 L166 229 L166 228 L168 226 L168 224 L170 222 L170 220 L171 219 L171 218 L173 216 L173 214 L174 213 L174 211 L176 209 L176 207 L178 205 L178 204 L179 203 L179 200 L181 198 L181 197 L182 196 L182 194 L184 192 L184 190 L185 189 L185 188 L187 186 L187 183 L190 180 L190 177 L192 175 L192 174 L193 173 L193 171 L195 169 L195 167 L196 166 L196 165 L198 163 L198 160 L200 158 L200 157 L201 156 L201 154 L203 152 L203 149 L206 146 L206 143 L208 141 L208 140 L209 139 L209 137 L210 136 L210 135 L211 134 L211 133 L212 132 L212 131 L213 130 L213 129 L214 128 L214 125 L216 123 L216 122 L217 121 L217 118 L219 116 L219 113 L218 112 Z M272 22 L271 23 L271 24 L270 25 L270 33 L268 35 L268 38 L267 39 L267 45 L266 46 L266 49 L265 50 L265 56 L264 57 L264 59 L263 60 L263 62 L262 63 L262 69 L260 71 L260 73 L259 74 L259 78 L257 80 L257 84 L256 85 L256 86 L254 88 L254 93 L252 95 L252 96 L251 97 L251 100 L250 101 L250 102 L249 103 L249 104 L248 105 L248 107 L247 108 L247 109 L246 110 L246 113 L245 114 L245 116 L243 118 L243 121 L241 123 L241 125 L240 126 L240 128 L238 130 L238 132 L237 133 L237 134 L235 136 L235 140 L232 143 L232 145 L231 146 L231 147 L230 148 L230 150 L229 151 L229 153 L227 155 L227 158 L224 161 L224 164 L222 166 L222 167 L221 168 L221 170 L219 172 L219 175 L218 176 L218 177 L216 179 L216 180 L215 181 L215 182 L214 183 L214 184 L213 185 L213 187 L211 189 L211 191 L210 192 L210 194 L208 196 L208 197 L207 198 L207 199 L206 200 L206 201 L205 202 L205 204 L203 206 L203 207 L202 208 L202 210 L200 212 L200 214 L199 215 L199 216 L198 217 L198 218 L197 219 L197 221 L195 223 L195 224 L194 225 L194 227 L192 229 L192 231 L191 232 L191 234 L189 236 L189 238 L188 239 L188 240 L186 242 L186 245 L184 247 L184 248 L183 249 L183 252 L181 254 L181 255 L180 256 L180 257 L179 258 L179 259 L178 260 L178 262 L177 263 L177 264 L176 265 L176 266 L175 267 L175 270 L173 272 L173 274 L172 275 L172 276 L171 277 L171 278 L170 279 L170 282 L168 284 L168 285 L167 286 L167 290 L166 291 L166 292 L164 294 L164 298 L162 300 L162 304 L161 305 L161 306 L160 307 L160 308 L159 309 L159 315 L158 316 L158 317 L157 318 L157 321 L156 322 L156 336 L155 337 L155 338 L156 339 L156 358 L157 359 L157 364 L158 365 L158 366 L159 367 L159 374 L160 375 L160 376 L161 377 L161 378 L162 379 L162 382 L163 383 L163 384 L164 385 L164 387 L165 388 L165 389 L167 391 L167 394 L168 395 L168 396 L170 398 L170 400 L172 402 L172 403 L175 406 L175 407 L176 408 L176 409 L179 412 L179 413 L186 420 L186 421 L187 421 L188 422 L188 423 L189 424 L190 424 L195 429 L196 429 L197 430 L197 431 L198 431 L199 432 L200 432 L201 433 L202 433 L203 432 L203 428 L204 427 L204 425 L205 424 L205 421 L206 420 L206 409 L208 407 L208 404 L209 403 L209 397 L210 396 L210 395 L211 394 L211 391 L212 390 L212 387 L214 385 L214 380 L216 378 L216 376 L217 375 L217 371 L219 369 L219 368 L220 367 L220 365 L222 363 L222 360 L223 359 L223 358 L225 356 L225 353 L227 351 L227 350 L228 349 L228 348 L229 347 L229 346 L230 345 L230 344 L231 343 L231 342 L233 340 L233 338 L236 335 L236 333 L238 331 L238 330 L239 329 L239 328 L240 327 L241 327 L241 325 L244 322 L244 321 L247 318 L247 317 L249 315 L249 314 L252 311 L252 310 L255 307 L255 306 L260 301 L260 300 L283 277 L284 277 L284 276 L285 275 L286 275 L291 270 L292 270 L294 268 L295 268 L297 266 L298 266 L298 265 L299 264 L300 264 L303 261 L304 261 L306 259 L307 259 L308 258 L309 258 L309 257 L310 256 L312 256 L315 253 L317 253 L320 250 L322 250 L324 248 L325 248 L326 247 L327 247 L329 245 L331 245 L333 243 L334 243 L335 242 L337 242 L339 240 L340 240 L341 239 L343 239 L345 237 L347 237 L348 236 L349 236 L351 234 L351 231 L350 230 L350 228 L349 227 L349 226 L347 224 L347 222 L346 221 L346 220 L344 218 L344 215 L342 213 L342 212 L341 211 L341 210 L339 208 L339 206 L338 205 L338 203 L336 201 L336 198 L334 196 L334 195 L333 194 L333 192 L331 190 L331 188 L330 187 L330 186 L328 184 L328 181 L325 178 L325 176 L324 175 L324 174 L323 173 L323 172 L322 171 L322 169 L320 167 L320 165 L319 164 L319 162 L317 160 L317 158 L316 157 L316 156 L315 155 L315 154 L314 153 L314 152 L312 150 L312 147 L311 146 L311 145 L309 143 L309 140 L307 138 L307 137 L306 136 L306 133 L304 131 L304 130 L303 129 L303 126 L301 124 L301 122 L300 121 L300 119 L299 118 L299 117 L298 116 L298 114 L296 112 L296 110 L295 109 L295 107 L293 105 L293 102 L292 101 L292 99 L290 97 L290 93 L289 92 L289 91 L288 90 L288 89 L287 88 L287 84 L285 82 L285 80 L284 79 L284 75 L283 74 L283 73 L282 72 L282 69 L281 68 L281 66 L280 65 L280 63 L279 62 L279 58 L277 56 L277 51 L276 50 L276 44 L275 43 L275 42 L274 41 L274 33 L273 32 L273 23 Z "/>
</svg>